<svg width="64" height="64" viewBox="0 0 64 64" fill="none" xmlns="http://www.w3.org/2000/svg">
  <path
    d="M30.7841 6.35297L0.961548 25.4142C0.704788 25.5783 0.487813 25.7925 0.325103 26.0426C0.162394 26.2927 0.0576929 26.5729 0.0179877 26.8645C-0.0217176 27.1561 0.0044861 27.4524 0.0948501 27.7336C0.185214 28.0148 0.33766 28.2745 0.542014 28.4953L3.00234 31.1575C3.35101 31.5338 3.8317 31.7769 4.35494 31.8416C4.87817 31.9062 5.4083 31.788 5.84664 31.5089L30.7841 15.5829C31.1426 15.3543 31.5646 15.2322 31.9964 15.2322C32.4282 15.2322 32.8503 15.3543 33.2088 15.5829L58.1534 31.5021C58.5917 31.7812 59.1218 31.8994 59.6451 31.8348C60.1683 31.7702 60.649 31.5271 60.9977 31.1508L63.458 28.4885C63.6623 28.2678 63.8148 28.0081 63.9051 27.7269C63.9955 27.4457 64.0217 27.1494 63.982 26.8578C63.9423 26.5662 63.8376 26.2859 63.6749 26.0358C63.5122 25.7857 63.2952 25.5715 63.0384 25.4074L33.2159 6.35297C32.8566 6.1229 32.4333 6 32 6C31.5667 6 31.1434 6.1229 30.7841 6.35297Z"
    fill="black"/>
  <path
    d="M53.9875 32.1912L33.217 18.8396C32.857 18.6081 32.4322 18.4844 31.9975 18.4844C31.5628 18.4844 31.1381 18.6081 30.778 18.8396L10.0146 32.1912C9.71985 32.38 9.47822 32.6345 9.31088 32.9325C9.14353 33.2305 9.05557 33.563 9.05469 33.9007V55.2931C9.05562 55.5646 9.11282 55.8333 9.22304 56.0838C9.33325 56.3343 9.49431 56.5617 9.69702 56.7531C9.89973 56.9445 10.1401 57.096 10.4045 57.1991C10.6688 57.3022 10.9519 57.3548 11.2377 57.3539H17.2747V40.813C17.2747 40.564 17.3788 40.3251 17.5642 40.1489C17.7496 39.9728 18.001 39.8738 18.2631 39.8738H25.3739C25.636 39.8738 25.8874 39.9728 26.0728 40.1489C26.2581 40.3251 26.3623 40.564 26.3623 40.813V57.3539H52.7645C53.3416 57.3539 53.895 57.1361 54.3031 56.7483C54.7111 56.3606 54.9404 55.8347 54.9404 55.2863V33.9007C54.9403 33.5636 54.8534 33.2315 54.6873 32.9336C54.5212 32.6356 54.281 32.3808 53.9875 32.1912V32.1912ZM47.1968 46.0767C47.1968 46.2559 47.1218 46.4277 46.9885 46.5544C46.8551 46.6812 46.6743 46.7524 46.4857 46.7524H38.799C38.6104 46.7524 38.4295 46.6812 38.2962 46.5544C38.1628 46.4277 38.0879 46.2559 38.0879 46.0767V39.8333C38.0879 39.6541 38.1628 39.4822 38.2962 39.3555C38.4295 39.2288 38.6104 39.1576 38.799 39.1576H46.4928C46.6814 39.1576 46.8622 39.2288 46.9956 39.3555C47.1289 39.4822 47.2039 39.6541 47.2039 39.8333L47.1968 46.0767Z"
    fill="#FACF2A"/>
</svg>
