<svg width="110" height="110" viewBox="0 0 110 110" fill="none" xmlns="http://www.w3.org/2000/svg">
  <path
    d="M73.1426 52.8497L50.3015 36.2459C49.4632 35.6383 48.3505 35.5468 47.4317 36.019C46.5056 36.4875 45.9272 37.4392 45.9272 38.4678V71.6644C45.9272 72.704 46.5056 73.652 47.4317 74.1206C47.8234 74.3182 48.2516 74.4171 48.6836 74.4171C49.2473 74.4171 49.8183 74.2377 50.3015 73.8826L73.1426 57.2935C73.8638 56.7627 74.2847 55.9428 74.2847 55.0716C74.2884 54.1858 73.8564 53.3695 73.1426 52.8497Z"
    fill="black"/>
  <path
    d="M55.0018 0.00683594C24.6201 0.00683594 0 24.627 0 55.0087C0 85.3794 24.6201 109.992 55.0018 109.992C85.3762 109.992 110 85.3757 110 55.0087C110.004 24.627 85.3762 0.00683594 55.0018 0.00683594ZM55.0018 100.815C29.7008 100.815 9.18771 80.3133 9.18771 55.0087C9.18771 29.715 29.7008 9.18723 55.0018 9.18723C80.2992 9.18723 100.809 29.7113 100.809 55.0087C100.812 80.3133 80.2992 100.815 55.0018 100.815Z"
    fill="black"/>
</svg>
